<?xml version="1.0" encoding="UTF-8"?>
<svg width="66px" height="66px" viewBox="0 0 66 66" version="1.1" xmlns="http://www.w3.org/2000/svg" xmlns:xlink="http://www.w3.org/1999/xlink">
    <!-- Generator: Sketch 46.2 (44496) - http://www.bohemiancoding.com/sketch -->
    <title>画板2</title>
    <desc>Created with Sketch.</desc>
    <defs></defs>
    <g id="sprint7-" stroke="none" stroke-width="1" fill="none" fill-rule="evenodd">
        <g id="Artboard" transform="translate(-336.000000, -525.000000)">
            <g id="Group-5" transform="translate(336.000000, 525.000000)">
                <g id="Group-3" transform="translate(5.000000, 5.000000)">
                    <g id="Group-7" transform="translate(29.909903, 28.374369) rotate(45.000000) translate(-29.909903, -28.374369) translate(16.409903, 20.374369)" fill="#333333">
                        <path d="M0.935402424,5.9496834 L14.9354024,5.9496834 L14.9354024,5.9496834 C16.0399719,5.9496834 16.9354024,6.8451139 16.9354024,7.9496834 L16.9354024,7.9496834 L16.9354024,7.9496834 C16.9354024,9.0542529 16.0399719,9.9496834 14.9354024,9.9496834 L0.935402424,9.9496834 L0.935402424,9.9496834 C-0.169167076,9.9496834 -1.06459758,9.0542529 -1.06459758,7.9496834 L-1.06459758,7.9496834 L-1.06459758,7.9496834 C-1.06459758,6.8451139 -0.169167076,5.9496834 0.935402424,5.9496834 Z" id="Rectangle-6" transform="translate(7.935402, 7.949683) rotate(45.000000) translate(-7.935402, -7.949683) "></path>
                        <path d="M11.7780973,5.94976074 L25.7781879,5.94976074 L25.7781879,5.94976074 C26.8827323,5.94976074 27.7781426,6.84517095 27.7781426,7.94971544 L27.7781426,7.94971544 L27.7781426,7.94971544 C27.7781426,9.05425992 26.8827323,9.94967013 25.7781879,9.94967013 L11.7780973,9.94967013 L11.7780973,9.94967013 C10.6735528,9.94967013 9.77814256,9.05425992 9.77814256,7.94971544 L9.77814256,7.94971544 L9.77814256,7.94971544 C9.77814256,6.84517095 10.6735528,5.94976074 11.7780973,5.94976074 Z" id="Rectangle-6" transform="translate(18.778143, 7.949715) rotate(-45.000000) translate(-18.778143, -7.949715) "></path>
                    </g>
                    <path d="M43.2901163,6.74035043 C39.0755038,3.87010036 33.9836867,2.19230769 28.5,2.19230769 C13.9706627,2.19230769 2.19230769,13.9706627 2.19230769,28.5 C2.19230769,43.0293373 13.9706627,54.8076923 28.5,54.8076923 L28.5,54.8076923 C43.0293373,54.8076923 54.8076923,43.0293373 54.8076923,28.5" id="Oval-2" stroke="#333333" stroke-width="4" stroke-linecap="round" stroke-linejoin="round" transform="translate(28.500000, 28.500000) rotate(4.000000) translate(-28.500000, -28.500000) "></path>
                </g>
            </g>
        </g>
    </g>
</svg>