<?xml version="1.0" encoding="UTF-8"?>
<svg width="66px" height="66px" viewBox="0 0 66 66" version="1.1" xmlns="http://www.w3.org/2000/svg" xmlns:xlink="http://www.w3.org/1999/xlink">
    <!-- Generator: Sketch 46.2 (44496) - http://www.bohemiancoding.com/sketch -->
    <title>画板1</title>
    <desc>Created with Sketch.</desc>
    <defs></defs>
    <g id="sprint7-" stroke="none" stroke-width="1" fill="none" fill-rule="evenodd">
        <g id="Artboard" transform="translate(-336.000000, -300.000000)">
            <g id="Group-5" transform="translate(336.000000, 300.000000)">
                <g id="Group-3" transform="translate(5.000000, 5.000000)">
                    <path d="M15.3461538,29.5961538 L28.5,29.5961538 L28.5,29.5961538 C29.7107781,29.5961538 30.6923077,30.5776834 30.6923077,31.7884615 L30.6923077,31.7884615 L30.6923077,31.7884615 C30.6923077,32.9992396 29.7107781,33.9807692 28.5,33.9807692 L15.3461538,33.9807692 L15.3461538,33.9807692 C14.1353757,33.9807692 13.1538462,32.9992396 13.1538462,31.7884615 L13.1538462,31.7884615 L13.1538462,31.7884615 C13.1538462,30.5776834 14.1353757,29.5961538 15.3461538,29.5961538 Z" id="Rectangle-6" fill="#3388FF" transform="translate(21.923077, 31.788462) rotate(45.000000) translate(-21.923077, -31.788462) "></path>
                    <path d="M24.1153846,24.1153846 L53.7115385,24.1153846 L53.7115385,24.1153846 C54.9223166,24.1153846 55.9038462,25.0969142 55.9038462,26.3076923 L55.9038462,26.3076923 L55.9038462,26.3076923 C55.9038462,27.5184704 54.9223166,28.5 53.7115385,28.5 L24.1153846,28.5 L24.1153846,28.5 C22.9046065,28.5 21.9230769,27.5184704 21.9230769,26.3076923 L21.9230769,26.3076923 L21.9230769,26.3076923 C21.9230769,25.0969142 22.9046065,24.1153846 24.1153846,24.1153846 Z" id="Rectangle-6" fill="#3388FF" transform="translate(38.913462, 26.307692) rotate(-45.000000) translate(-38.913462, -26.307692) "></path>
                    <path d="M43.2901163,6.74035043 C39.0755038,3.87010036 33.9836867,2.19230769 28.5,2.19230769 C13.9706627,2.19230769 2.19230769,13.9706627 2.19230769,28.5 C2.19230769,43.0293373 13.9706627,54.8076923 28.5,54.8076923 L28.5,54.8076923 C43.0293373,54.8076923 54.8076923,43.0293373 54.8076923,28.5" id="Oval-2" stroke="#3388FF" stroke-width="4" stroke-linecap="round" stroke-linejoin="round" transform="translate(28.500000, 28.500000) rotate(4.000000) translate(-28.500000, -28.500000) "></path>
                </g>
            </g>
        </g>
    </g>
</svg>