<?xml version="1.0" standalone="no"?>
<!DOCTYPE svg PUBLIC "-//W3C//DTD SVG 1.1//EN" "http://www.w3.org/Graphics/SVG/1.1/DTD/svg11.dtd" >
<svg xmlns="http://www.w3.org/2000/svg">
<metadata>
Created by FontForge 20120731 at Thu Apr  6 10:35:45 2017
 By admin
</metadata>
<defs>
<font id="iconfont" horiz-adv-x="1024" >
  <font-face 
    font-family="iconfont"
    font-weight="500"
    font-stretch="normal"
    units-per-em="1024"
    panose-1="2 0 6 3 0 0 0 0 0 0"
    ascent="896"
    descent="-128"
    x-height="792"
    bbox="0 -128 1023 896"
    underline-thickness="0"
    underline-position="0"
    unicode-range="U+0078-E663"
  />
<missing-glyph 
 />
    <glyph glyph-name=".notdef" 
 />
    <glyph glyph-name=".notdef" 
 />
    <glyph glyph-name=".null" horiz-adv-x="0" 
 />
    <glyph glyph-name="nonmarkingreturn" horiz-adv-x="341" 
 />
    <glyph glyph-name="x" unicode="x" horiz-adv-x="1001" 
d="M281 543q-27 -1 -53 -1h-83q-18 0 -36.5 -6t-32.5 -18.5t-23 -32t-9 -45.5v-76h912v41q0 16 -0.5 30t-0.5 18q0 13 -5 29t-17 29.5t-31.5 22.5t-49.5 9h-133v-97h-438v97zM955 310v-52q0 -23 0.5 -52t0.5 -58t-10.5 -47.5t-26 -30t-33 -16t-31.5 -4.5q-14 -1 -29.5 -0.5
t-29.5 0.5h-32l-45 128h-439l-44 -128h-29h-34q-20 0 -45 1q-25 0 -41 9.5t-25.5 23t-13.5 29.5t-4 30v167h911zM163 247q-12 0 -21 -8.5t-9 -21.5t9 -21.5t21 -8.5q13 0 22 8.5t9 21.5t-9 21.5t-22 8.5zM316 123q-8 -26 -14 -48q-5 -19 -10.5 -37t-7.5 -25t-3 -15t1 -14.5
t9.5 -10.5t21.5 -4h37h67h81h80h64h36q23 0 34 12t2 38q-5 13 -9.5 30.5t-9.5 34.5q-5 19 -11 39h-368zM336 498v228q0 11 2.5 23t10 21.5t20.5 15.5t34 6h188q31 0 51.5 -14.5t20.5 -52.5v-227h-327z" />
    <glyph glyph-name="duoyun" unicode="&#xe600;" 
d="M604 756l15 -87v0v-0.5v-0.5q2 -13 12.5 -20t23.5 -5t20.5 12.5t5.5 23.5v0.5v0.5v0l-16 87v0q-2 12 -12.5 19.5t-23.5 5t-20.5 -13t-4.5 -22.5v0zM1014.5 520.5q-2.5 12.5 -13 20t-23.5 5.5v0v0v0l-87 -15v0q-13 -3 -20.5 -13.5t-5 -23t13 -20t23.5 -5.5v0l86 15v0h1v0
q13 3 20.5 13.5t5 23zM802.5 627q10.5 -7 23 -5t20.5 12v0l50 73v0h0.5h0.5q7 11 5 23.5t-13 20t-23.5 5.5t-20.5 -13v0v0v0l-51 -73v0q-7 -10 -4.5 -23t13 -20zM409 620v0l72 -50v0v-0.5t1 -0.5q10 -7 23 -5t20.5 13t5 23.5t-12.5 20.5h-0.5h-0.5v0l-72 51v0
q-11 7 -23.5 4.5t-20 -13t-5.5 -23t13 -20.5zM965 306l-0.5 0.5l-0.5 0.5v0l-72 50v0q-10 8 -23 5.5t-20.5 -13t-5 -23.5t12.5 -20v0l72 -51v0h0.5h0.5q11 -7 23.5 -5t20 12.5t5.5 23.5t-13 20zM789 361q24 24 35 57.5t5 69.5q-10 59 -59 93.5t-108 23.5q-37 -6 -65.5 -29
t-42.5 -57q-63 36 -135 36q-83 0 -151 -45.5t-100 -119.5q-71 -15 -117 -71.5t-46 -130.5q0 -85 60.5 -145.5t145.5 -60.5h8h437v0q87 2 148 64.5t61 149.5q0 49 -20 92t-56 73zM670 556q39 7 71 -15.5t39 -61.5q4 -26 -5.5 -50t-29.5 -40q-40 20 -85 22q-25 46 -65 80
q7 27 28 43.5t47 21.5zM656 50q-16 0 -20 1h-425h-1v0h-1v0q-59 0 -97 39t-38 97q0 59 38.5 98t97.5 39h3q6 28 32 69v0q17 28 40 46v1q1 1 3 2l1 1q1 0 2 1q56 44 128 44q70 0 125.5 -41.5t76.5 -106.5q16 3 33 3q15 0 30 -3v0q6 -1 11 -2h1v-1h2t1.5 -0.5t1.5 -1t2 -0.5
h0.5h0.5q45 -16 71 -52.5t26 -86.5q0 -62 -41.5 -103.5t-103.5 -42.5z" />
    <glyph glyph-name="leizhenyu" unicode="&#xe601;" 
d="M975 459q0 93 -64.5 160t-156.5 70q-38 71 -107 113t-151 42q-89 0 -162 -49t-107 -128q-76 -16 -126 -76.5t-50 -140.5q0 -91 65 -156t157 -65h8h23l43 68h-75v0v0h-1v0q-63 0 -107.5 45t-44.5 108t45 107.5t108 44.5h3q8 36 28 68v0q19 32 49 56v0q1 2 3 3q1 1 2 1l1 1
q61 47 138 47q75 0 135 -44.5t82 -114.5q17 4 35 4q16 0 32 -3v0q6 -1 12 -3h1q1 -1 3 -1l0.5 -0.5t2 -0.5t2.5 -1v0v0q49 -17 79.5 -59.5t30.5 -95.5q0 -67 -47 -114t-114 -48q-17 -1 -21 0h-114l-39 -68h76q-1 -8 -1 -16q0 -29 20 -49t48.5 -20t49 20t20.5 49q0 10 -3 20
q81 15 135 78.5t54 147.5zM581 299h-102l50 201l-188 -275h87v-148zM326 90q-2 -2 -7 -5.5t-16.5 -14.5t-20.5 -22t-16.5 -27t-7.5 -30v0v-0.5v-0.5q0 -28 20 -48t48.5 -20t48.5 20t20 48v0.5v0.5v0v0q-1 1 0 5t-2.5 14.5t-9 21.5t-20.5 27t-37 31zM634 101l-7.5 -5
t-16.5 -12.5t-21 -20t-16 -26t-7 -31.5v0q1 -28 21 -47.5t47.5 -19.5t47.5 19.5t21 47.5v0v7t-3.5 15.5t-9.5 22.5t-20.5 25t-35.5 25z" />
    <glyph glyph-name="qing" unicode="&#xe602;" 
d="M516 584q-83 0 -141.5 -58.5t-58.5 -141.5t58.5 -141.5t141.5 -58.5t141.5 58.5t58.5 141.5t-58.5 141.5t-141.5 58.5zM516 253q-54 0 -92 38.5t-38 92.5t38 92t92 38t92 -38t38 -92t-38 -92.5t-92 -38.5zM473 679q0 -18 12.5 -30.5t30.5 -12.5t30.5 12.5t12.5 30.5v1v0
v0v122v0q0 18 -12.5 30.5t-30.5 12.5t-30.5 -12.5t-12.5 -30.5v0v-122v0v0v-1zM516 132q-18 0 -30.5 -12.5t-12.5 -30.5v0v-122v0v-0.5v-0.5q0 -18 12.5 -30.5t30.5 -12.5t30.5 12.5t12.5 30.5v0.5v0.5v0v122v0q0 18 -12.5 30.5t-30.5 12.5zM219 340v0v0v0q18 0 31 13t13 31
t-13 30.5t-31 12.5v0v0v0h-122v0q-18 0 -30.5 -12.5t-12.5 -30.5t12.5 -30.5t30.5 -13.5v0h122zM933 427h-0.5h-0.5v0h-122v0q-18 0 -30.5 -12.5t-12.5 -30.5t12.5 -30.5t30.5 -13.5v0h122v0h0.5h0.5q18 0 30.5 13t12.5 31t-12.5 30.5t-30.5 12.5zM264 193h-0.5t-0.5 -1v1
l-86 -87v0q-12 -12 -12 -30t12.5 -30.5t30.5 -13t30 12.5v0l87 86v0v0.5v0.5q13 12 13 30t-13 31t-30.5 13t-30.5 -13zM712.5 579.5q12.5 -12.5 30.5 -12.5t30 12v0l87 86v0v0.5v0.5q13 13 13 30.5t-12.5 30.5t-30.5 13t-31 -13h-0.5h-0.5v0l-86 -87v0q-12 -12 -12 -30
t12.5 -30.5zM175 664l86 -86v0h0.5t0.5 -1q13 -12 31 -12t30.5 12.5t12.5 30.5t-13 31v0v0v0l-87 87v0q-12 12 -30 12t-30.5 -12.5t-12.5 -30.5t12 -31v0zM857 104v0l-86 87v0q-13 12 -31 12t-30.5 -12.5t-12.5 -30.5t12 -31v0l86 -86v0h1v-1q13 -12 31 -12t30.5 12.5
t12.5 30.5t-13 31v0v0z" />
    <glyph glyph-name="shachen" unicode="&#xe603;" 
d="M234 323q14 0 25 9q13 12 13 30q0 19 -15 30q-10 8 -23 8q-15 0 -26 -10q-12 -11 -12 -28q0 -12 6 -22q12 -17 32 -17zM385.5 335q11.5 11 11.5 27q0 18 -14 29q-11 9 -25 9q-17 0 -28 -12q-10 -11 -10 -26q0 -16 11 -27t27 -11t27.5 11zM483 323q17 0 28 12q11 11 11 27
t-13 28q-11 10 -26 10q-16 0 -27 -11t-11 -27q0 -15 10 -26q11 -13 28 -13zM608 324q14 0 25 10q13 11 13 28t-13 29q-11 9 -25.5 9t-25.5 -9q-13 -12 -13 -29q0 -15 11 -26q11 -12 28 -12zM119 284q-11 11 -27 11q-17 0 -29 -13q-9 -11 -9 -25q0 -16 11 -27.5t27 -11.5
q14 0 25 10q13 11 13 29q0 16 -11 27zM188 282q-10 -11 -10 -26t10 -25q12 -13 29 -13q15 0 26 11q12 11 12 27t-11 27q-11 12 -27 12q-17 0 -29 -13zM303 257q0 -12 8.5 -20.5t20.5 -8.5h2h447v0q34 0 58 24t24 57q0 34 -23.5 57.5t-56.5 24.5v0h-2v0v0h-56h-2
q-12 0 -20.5 -8.5t-8.5 -20.5t8.5 -20.5t20.5 -8.5v0v0h57v0h1v0q10 0 17 -7t7 -17t-7 -16.5t-17 -6.5h-1v-1h-443h-5q-12 0 -20.5 -8t-8.5 -20zM186 180q-11 9 -24 9q-18 0 -30 -14q-8 -11 -8 -25q0 -16 11 -27t27 -11q15 0 26 10q12 12 12 28q0 19 -14 30zM311 179
q-11 9 -25 9q-18 0 -29 -13q-9 -11 -9 -25t9 -25q11 -13 29 -13q14 0 25 8q14 12 14 30t-14 29zM433 181q-10 7 -23 7q-18 0 -29 -13q-9 -11 -9 -25t9 -24q11 -14 29 -14q15 0 26 10q13 11 13 28q0 20 -16 31zM886 179v0h-357h-2q-12 0 -20.5 -8.5t-8.5 -20.5t8.5 -20.5
t20.5 -8.5h4h351v0h1q9 0 16 -7t7 -16.5t-6.5 -16.5t-16.5 -7h-1v0v0h-28v0h-1q-12 0 -20.5 -8.5t-8.5 -20.5t8.5 -20.5t20.5 -8.5h2h27h1v0h1v0q34 0 57 24t23 57t-23 57t-55 25zM761 76q-11 7 -23 7q-16 0 -28 -11q-10 -12 -10 -27q0 -14 9 -25q11 -13 29 -13q14 0 25 9
q13 12 13 29q0 20 -15 31zM636 76q-10 7 -22 7q-16 0 -27 -11t-11 -27q0 -15 10 -27q11 -12 28 -12q14 0 24 9q14 12 14 30q0 20 -16 31zM489 83q-15 0 -26 -10q-13 -11 -13 -29q0 -17 13 -29q11 -9 26 -9q16 0 27 12q11 11 11 26q0 14 -9 25q-12 14 -29 14zM389 74
q-11 9 -25 9q-18 0 -29 -13q-9 -11 -9 -26q0 -14 10 -25q11 -13 28 -13q14 0 24 9q14 11 14 29t-13 30zM264 74q-10 9 -24 9q-16 0 -27.5 -11t-11.5 -27q0 -15 10 -25q11 -14 29 -14q15 0 26 11q12 11 12 28q0 18 -14 29zM754 610q-37 70 -106.5 112t-151.5 42
q-89 0 -162 -48.5t-107 -128.5q-76 -16 -125.5 -76.5t-49.5 -139.5v-9h68v8q0 63 44.5 107.5t107.5 44.5h3q8 36 28 68v0q20 32 49 56v1q2 1 3 2t2 1l1 1q61 47 138 47q76 0 135.5 -44.5t81.5 -113.5q17 3 35 3q17 0 33 -3v0q5 -1 11 -3h1t3 -1h1t2 -0.5t2 -0.5l0.5 -0.5
l0.5 -0.5q48 -17 79 -59t31 -95q0 -9 -1 -18h63q1 9 1 18q0 92 -64.5 159t-156.5 71z" />
    <glyph glyph-name="wu" unicode="&#xe604;" 
d="M474 681q0 -18 13 -30.5t31 -12.5t30.5 12.5t12.5 30.5v0.5v0.5v0v122v0q0 18 -12.5 30.5t-30.5 12.5t-30.5 -12.5t-13.5 -30.5v0v-122v0v-0.5v-0.5zM221 342v0v0v0q18 0 31 13t13 31t-13 30.5t-31 12.5v0v0v0h-122v0q-18 0 -30.5 -12.5t-12.5 -30.5t12.5 -30.5
t30.5 -13.5v0h122zM812 429v0q-18 0 -30.5 -12.5t-12.5 -30.5t12.5 -30.5t30.5 -13.5v0h122v0h0.5h0.5q18 0 30.5 13t12.5 31t-12.5 30.5t-30.5 12.5h-0.5h-0.5v0h-122zM714.5 581.5q12.5 -12.5 30.5 -12.5t30 12v0l87 86v0v0.5v0.5q13 12 13 30t-13 31t-30.5 13t-30.5 -13
h-0.5h-0.5v0l-86 -87v0q-12 -12 -12 -30t12.5 -30.5zM177 666l86 -86v0h0.5t0.5 -1q13 -12 30.5 -12t30.5 12.5t13 30.5t-13 31v0v0v0l-87 87v0q-12 12 -30 12t-30.5 -12.5t-12.5 -30.5t12 -31v0zM327 325h75q-14 28 -14 61q0 54 38 92t92 38t92 -38t38 -92q0 -33 -15 -61
h75q10 29 10 61q0 82 -58.5 141t-141.5 59t-141.5 -59t-58.5 -141q0 -32 9 -61zM814 205v0q18 0 30.5 13t12.5 31t-13 30.5t-31 12.5h-1h-666h-2q-18 0 -31 -12.5t-13 -30.5t12.5 -30.5t30.5 -13.5v0h671zM930 175h-1h-654v0h-2q-18 0 -30.5 -12.5t-12.5 -30.5t12.5 -31
t30.5 -13h2v0h656v0q18 0 30.5 13t12.5 31t-13 30.5t-31 12.5zM816 58v0h-1h-1.5h-1.5h-602h-2q-18 0 -30.5 -12.5t-12.5 -30.5t12.5 -31t30.5 -13v0h608v0q17 1 29 13.5t12 30t-12 30t-29 13.5z" />
    <glyph glyph-name="wumai" unicode="&#xe605;" 
d="M102 683q20 0 34.5 14t14.5 34t-14.5 34t-34.5 14t-34 -14t-14 -34t14 -34t34 -14zM515 683q20 0 34 14t14 34t-14 34t-34 14t-34 -14t-14 -34t14 -34t34 -14zM925 683q20 0 34 14t14 34t-14 34t-34 14t-34 -14t-14 -34t14 -34t34 -14zM103 92q-20 0 -34 -14t-14 -34
t14 -34t34 -14t34.5 14t14.5 34t-14.5 34t-34.5 14zM516 92q-20 0 -34 -14t-14 -34t14 -34t34 -14t34 14t14 34t-14 34t-34 14zM926 92q-20 0 -34 -14t-14 -34t14 -34t34 -14t34 14t14 34t-14 34t-34 14zM975 389q0 99 -61.5 158.5t-164.5 59.5q-43 0 -81.5 -14t-67.5 -38
t-49 -47t-36 -49q-17 26 -37 49t-48.5 47t-67.5 38t-82 14q-103 0 -164.5 -59.5t-61.5 -158.5q0 -101 62.5 -161t166.5 -60q63 0 118 32q44 26 81 71q17 22 33 47q15 -25 32 -47q37 -45 81 -71q55 -32 118 -32q104 0 166.5 60t62.5 161zM423 299q-62 -69 -140 -69
q-79 0 -122.5 42t-43.5 117q0 73 43 114t120 41q78 0 141 -66q36 -38 60 -88v0v0q-23 -52 -58 -91zM869 272q-44 -42 -123 -42q-78 0 -139 69q-36 39 -59 90q24 51 60 89q63 66 141 66t121 -41t43 -114q0 -75 -44 -117z" />
    <glyph glyph-name="xiayu" unicode="&#xe606;" 
d="M340 114v0q-7 -7 -17 -18.5t-27 -41t-20 -51.5v0v0v-3v0v-3q0 -28 19.5 -47t47 -19t47 19t19.5 47q0 3 -1 7q-3 53 -68 110zM613 116v0q-6 -7 -16 -17.5t-27.5 -38.5t-19.5 -48l-0.5 -0.5l-0.5 -0.5v-2v-1v-3q0 -25 19.5 -43t47 -18t47 18t19.5 43v7q-3 50 -69 104z
M759 689q-38 70 -107 112.5t-151 42.5q-90 0 -162.5 -49t-106.5 -128q-76 -16 -126 -77t-50 -140q0 -92 65 -156.5t157 -64.5h8h58v-23v0v0q0 -25 17.5 -42.5t42.5 -17.5t42.5 17.5t17.5 42.5v0v0v23h136v-7q0 -25 17.5 -42.5t42 -17.5t42 17.5t17.5 42.5v7h36v0
q93 2 158.5 69t65.5 161q0 93 -64 159.5t-156 70.5zM755 296h-21h-457v0v0h-2v0q-62 1 -106.5 45.5t-44.5 107.5t45 108t108 45h3q8 36 27 67v0q20 33 49 57h1q1 1 3 2q1 1 1 2q1 0 2 1q61 47 138 47q75 0 134.5 -44.5t81.5 -114.5q18 4 35 4t33 -4v0l12 -2l1 -1h2
q1 -1 1.5 -1t2 -0.5t2.5 -0.5v0v0q49 -17 79.5 -59.5t30.5 -95.5q0 -67 -47 -114.5t-114 -48.5z" />
    <glyph glyph-name="xue" unicode="&#xe607;" 
d="M755 689q-38 70 -107 112.5t-151 42.5q-89 0 -162 -49t-107 -128q-76 -16 -126 -77t-50 -140q0 -92 65 -156.5t157 -64.5h8h256l-10 -6v0q-11 -7 -14 -18.5t3 -22.5t18 -14t23 3v0l12 7v-12v0q0 -13 9 -21.5t21 -8.5t21 8.5t9 21.5v0v11l10 -6v0q11 -6 23 -3t18 14t3 23
t-14 18v0l-10 6h91v0q93 2 159 69t66 161q0 93 -64.5 159.5t-156.5 70.5zM751 296h-21h-457v0v0h-2v0q-62 1 -106.5 45.5t-44.5 107.5t45 108t108 45h3q8 36 28 67v0q19 33 49 57v0q1 1 3 2l2 2l1 1q61 47 138 47q75 0 134.5 -44.5t81.5 -114.5q18 4 36 4q16 0 32 -4v0
l12 -2l1 -1h2q1 -1 1.5 -1t2 -0.5t2.5 -0.5v0v0q49 -17 79.5 -59.5t30.5 -95.5q0 -67 -47 -114.5t-114 -48.5zM396 167.5q-5 8.5 -14.5 11.5t-18.5 -2v0l-8 -5v11v0q0 10 -7.5 17t-17 7t-17 -7t-7.5 -17v0v-12l-9 6v0q-9 5 -18.5 2t-14.5 -11.5t-2.5 -18t10.5 -14.5v0l9 -5
l-9 -6v0q-8 -5 -10.5 -14.5t2.5 -18t14.5 -11t18.5 2.5v0l9 5v-10v0q0 -10 7.5 -17t17 -7t17 7t7.5 17v0v9l8 -4v0q9 -5 18.5 -2.5t14.5 11t2.5 18t-11.5 15.5v0l-9 5l9 5v0q9 5 11.5 14.5t-2.5 18zM551 25q-4 7 -12 9.5t-15 -1.5v0l-7 -4v9v0q0 8 -6 14t-14 6t-14 -6
t-6 -14v0v-10l-8 5v0q-7 4 -15 1.5t-12.5 -9.5t-2 -15t9.5 -12v0l7 -4l-7 -5v0q-7 -4 -9.5 -12t2 -15t12.5 -9.5t15 1.5v0l8 5v-8v0q0 -8 6 -14t14 -6t14 6t6 14v0v7l7 -4v0q7 -4 15 -1.5t12 9.5t2 15t-9 12v0l-7 5l7 4v0q7 4 9 12t-2 15zM754.5 78q-4.5 7 -12.5 9.5
t-15 -2.5v0l-7 -4v10v0q0 8 -6 14t-14 6t-14 -6t-6 -14v0v-10l-8 4v0q-7 5 -15 2.5t-12 -9.5t-2 -15t9 -12v0l7 -5l-7 -4v0q-7 -4 -9 -12t2 -15.5t12 -9.5t15 2v0l8 5v-8v0q0 -9 6 -14.5t14 -5.5t14 5.5t6 14.5v0v7l7 -4v0q7 -4 15 -2t12.5 9.5t2 15.5t-9.5 12v0l-7 4l7 5v0
q7 4 9.5 12t-2 15z" />
    <glyph glyph-name="yin" unicode="&#xe608;" 
d="M791 596q-35 65 -99 104.5t-141 39.5q-83 0 -151 -45.5t-100 -119.5q-4 -10 -7 -23q-63 -45 -93 -115q-71 -15 -117.5 -71.5t-46.5 -130.5q0 -85 60.5 -145.5t146.5 -60.5h8h436v0q75 2 132 49t73 119q48 28 76.5 77.5t28.5 107.5q0 86 -60 148t-146 66zM687 97
q-15 0 -19 1h-426v0v0h-1v0q-59 0 -97.5 39t-38.5 97q0 59 39 98t98 39h3q6 28 31 69v0q17 28 40 46l1 1l2 2t2 1l1 1q57 44 129 44q70 0 125.5 -41.5t76.5 -106.5q16 3 32 3t31 -3v0q5 -1 11 -2v-1h3t1.5 -0.5t1.5 -1t2 -0.5v0v0q46 -16 71.5 -52.5t25.5 -86.5
q0 -62 -41 -103.5t-104 -42.5zM894 280q-13 74 -70 124.5t-133 53.5q-35 65 -99.5 104.5t-141.5 39.5q-31 0 -62 -7q11 15 28 29l1 1q1 1 3 2q0 1 1 1l1 1q57 44 129 44q70 0 125.5 -41.5t76.5 -106.5q16 3 32 3t31 -3v0q5 -1 11 -2h1q1 -1 2 -1t1.5 -0.5t1.5 -1t2 -0.5v0h1
q45 -16 70.5 -52.5t25.5 -85.5q0 -61 -38 -102z" />
    <glyph glyph-name="uv" unicode="&#xe609;" 
d="M431 338q0 -71 -31 -107q-34 -39 -104 -39t-104 39q-31 35 -31 107v272h-38v-272q0 -87 43 -133q43 -47 130 -47t131 48q42 46 42 132v272h-38v-272zM858 610l-148 -403h-2l-148 403h-43l168 -443h48l168 443h-43z" />
    <glyph glyph-name="fengli" unicode="&#xe60a;" 
d="M514.5 843q-93.5 0 -178.5 -36.5t-146.5 -98t-98 -146.5t-36.5 -178.5t36.5 -179t98 -147t146.5 -98t178.5 -36.5t179 36.5t147 98t98 147t36.5 179t-36.5 178.5t-98 146.5t-147 98t-179 36.5zM515 -29q-112 0 -207 55.5t-150 150t-55 206.5t55 207t150 150t207 55
t206.5 -55t150 -150t55.5 -207t-55.5 -206.5t-150 -150t-206.5 -55.5zM312 575v1l202 -459l207 459l-206 -103z" />
    <glyph glyph-name="richuriluo" unicode="&#xe60b;" 
d="M285 215h49v1.5v0.5q0 73 51.5 125t125 52t125.5 -52t52 -125v-0.5v-1.5h48v1.5v0.5q0 93 -66 159t-159.5 66t-159.5 -66t-66 -159v-0.5v-1.5zM178 147h658v-51h-658v51zM494 670h45v-184h-45v184zM200 587l130 -130l-32 -32l-130 130zM786 295h184v-45h-184v45zM51 296
h184v-45h-184v45zM833 586l32 -32l-130 -130l-32 32z" />
    <glyph glyph-name="shidu" unicode="&#xe60c;" 
d="M515 844v0v0v0v0v-6v6v0v0v0v0q-9 -9 -23 -23.5t-51 -55.5t-70 -82.5t-73 -98.5t-68 -108t-46 -107.5t-15 -101.5q0 -94 46.5 -173t126 -125.5t173.5 -46.5v0v0h0.5h0.5q94 0 173.5 46.5t126 125.5t46.5 173q3 45 -15 101.5t-46 107.5t-68 108t-73.5 98.5t-70.5 82.5
t-51 55.5t-23 23.5zM809 268v0q0 -121 -86 -207t-207 -86h-1v0v0v0v0v0q-122 0 -208 86t-86 207v0q-3 53 26 125t72.5 136.5t88.5 121.5t75.5 91t31.5 34v0v-1v0v0v1h1q1 0 31.5 -34t75.5 -90.5t88.5 -121.5t72.5 -137t25 -125zM250 270q0 -110 78 -188t188 -78
q91 0 162.5 60t94.5 148q-27 21 -81 29.5t-94 6.5l-40 -2q-158 0 -294 110q-14 -41 -14 -86z" />
    <glyph glyph-name="xianxing" unicode="&#xe60d;" 
d="M516.5 843q-93.5 0 -178.5 -36.5t-147 -98.5t-98 -147t-36 -178.5t36 -178.5t98 -147t147 -98t178.5 -36t179 36t147 98t98 147t36.5 178.5t-36.5 178.5t-98 147t-147 98.5t-179 36.5zM517 -29q-112 0 -207 55t-150 150t-55 207q0 156 104 273l581 -581
q-117 -104 -273 -104zM827 111l-581 582q116 101 271 101q111 0 206 -55t150 -150t55 -206q0 -155 -101 -272z" />
    <glyph glyph-name="uv1" unicode="&#xe60e;" 
d="M410 328q0 -88 -39 -134q-42 -48 -129 -48t-129 48q-39 44 -39 134v338h-47v-338q0 -109 53 -166q54 -59 162 -59t163 60q52 58 52 165v338h-47v-338v0zM941 666l-184 -501h-3l-184 501h-53l209 -552h60l208 552h-53z" />
    <glyph glyph-name="fengli1" unicode="&#xe60f;" 
d="M512 810q-116 0 -214 -57t-155 -155t-57 -214t57 -214t155 -155t214 -57t214 57t155 155t57 214t-57 214t-155 155t-214 57zM512 2q-104 0 -192 51t-139 139t-51 192t51 192t139 139t192 51t192 -51t139 -139t51 -192t-51 -192t-139 -139t-192 -51zM324 562v0l188 -425
l191 425l-190 -95z" />
    <glyph glyph-name="richuriluo1" unicode="&#xe610;" 
d="M264 199h54v0.5v1.5q0 81 57 138t138 57t138 -57t57 -138v-1.5v-0.5h54v0.5v1.5q0 103 -73 176t-176 73t-176 -73t-73 -176v-1.5v-0.5zM145 124h728v-57h-728v57zM495 701h50v-203h-50v203zM170 609l144 -143l-35 -36l-144 144zM817 287h203v-50h-203v50zM5 288h203v-50
h-203v50zM869 608l35 -35l-144 -144l-35 35z" />
    <glyph glyph-name="shidu1" unicode="&#xe611;" 
d="M512 820v0v0v0v0v-6v6v0v0v0v0q-8 -8 -21.5 -22t-48.5 -53t-66.5 -78t-69 -93t-64.5 -102.5t-43.5 -101.5t-14.5 -96q0 -89 44 -164t119.5 -118.5t163.5 -43.5h1v0v0h1q88 0 163.5 43.5t119.5 118.5t44 164q2 43 -14.5 96t-43.5 101.5t-64.5 102.5t-69 93t-66.5 78
t-48.5 53t-21.5 22zM790 275v0q0 -115 -81.5 -196t-195.5 -81h-1v0v0v0v0h-1q-114 0 -195.5 81t-81.5 196v0q-3 50 24.5 118t68.5 129t83.5 115t71.5 86t30 32v0v0v0v0v0v0q1 0 30 -32t71.5 -85.5t84 -114.5t69 -129t23.5 -119zM261 277q0 -104 74 -178t178 -74
q86 0 153.5 56.5t89.5 140.5q-26 20 -77 28t-89 6l-38 -1q-149 0 -278 103q-13 -39 -13 -81z" />
    <glyph glyph-name="xianxing1" unicode="&#xe612;" 
d="M513 813q-117 0 -215.5 -57.5t-156 -156t-57.5 -215.5t57.5 -215.5t156 -156t215.5 -57.5t215.5 57.5t156 156t57.5 215.5t-57.5 215.5t-156 156t-215.5 57.5zM513 0q-104 0 -193 51.5t-140 140t-51 192.5q0 146 97 255l542 -542q-109 -97 -255 -97zM802 131l-542 542
q109 95 253 95q104 0 192.5 -51.5t140 -140t51.5 -192.5q0 -144 -95 -253z" />
    <glyph glyph-name="uv2" unicode="&#xe613;" 
d="M409 325q0 -90 -40 -137q-43 -49 -132 -49t-132 49q-40 46 -40 137v347h-48v-347q0 -110 54 -169q55 -60 166 -60t167 61q53 59 53 168v347h-48v-347v0zM954 672l-190 -514h-2l-189 514h-54l214 -565h62l213 565h-54z" />
    <glyph glyph-name="fengli2" unicode="&#xe614;" 
d="M511.5 793q-111.5 0 -206 -54.5t-149 -149t-54.5 -206t54.5 -206t149 -149.5t206 -55t206 55t149.5 149.5t55 206t-55 206t-149.5 149t-206 54.5zM511.5 16q-99.5 0 -184 49t-133.5 134t-49 184.5t49 184t133.5 133.5t184 49t184.5 -49t134 -133.5t49 -184t-49 -184.5
t-134 -134t-184.5 -49zM331 555v0l180 -409l185 409l-184 -91z" />
    <glyph glyph-name="richuriluo2" unicode="&#xe615;" 
d="M266 201h53v1.5v0.5q0 80 56.5 136.5t136.5 56.5t136.5 -56.5t56.5 -136.5v-0.5v-1.5h52q0 1 0.5 1.5l0.5 0.5q0 102 -72 174t-174 72t-174 -72t-72 -174v-0.5v-1.5zM149 127h718v-56h-718v56zM494 697h49v-200h-49v200zM280 430l-142 142l35 34l142 -142zM812 288h200
v-49h-200v49zM10 289h201v-49h-201v49zM756 429l-35 34l142 142l35 -34z" />
    <glyph glyph-name="shidu2" unicode="&#xe616;" 
d="M513 778v0v0v0v0v-6v6v0v0v0v0q-14 -14 -35.5 -37t-73.5 -85t-91 -119.5t-69 -128.5t-27 -123q0 -122 86.5 -208.5t208.5 -86.5h1v0h1q122 0 208.5 86.5t86.5 208.5q3 52 -27 123t-69 128.5t-91 119.5t-73.5 85t-35.5 37zM764 285v0q0 -103 -73.5 -176.5t-176.5 -73.5h-1
v0v0v0v0h-1q-103 0 -176.5 73.5t-73.5 176.5v0q-8 126 182 357q39 47 69 78v-1v0v0v0v0v1q1 0 27.5 -29.5t64.5 -77.5t75.5 -103.5t62.5 -117t21 -107.5zM286 288q0 -95 67 -161.5t161 -66.5q77 0 138.5 51t81.5 126q-24 18 -70 25.5t-80 6.5l-35 -2q-134 0 -251 94
q-12 -36 -12 -73z" />
    <glyph glyph-name="xianxing2" unicode="&#xe617;" 
d="M512 794q-111 0 -205.5 -54.5t-149 -149t-54.5 -205.5t54.5 -205.5t149 -149.5t205.5 -55t205.5 55t149.5 149.5t55 205.5t-55 205.5t-149.5 149t-205.5 54.5zM512 18q-99 0 -183.5 49t-133.5 133.5t-49 184.5q0 139 92 243l518 -517q-105 -93 -244 -93zM788 144
l-517 517q103 90 241 90q100 0 184.5 -49t133.5 -133.5t49 -183.5q0 -138 -91 -241z" />
    <glyph glyph-name="xianxing3" unicode="&#xe618;" 
d="M512 764q-103 0 -190.5 -51t-138.5 -138.5t-51 -190.5t51 -190.5t138.5 -138.5t190.5 -51t190.5 51t138.5 138.5t51 190.5t-51 190.5t-138.5 138.5t-190.5 51zM512 44q-92 0 -170.5 45.5t-124 124t-45.5 170.5q0 129 86 226l480 -480q-97 -86 -226 -86zM768 160l-480 480
q96 84 224 84q92 0 170.5 -45.5t124 -124t45.5 -170.5q0 -128 -84 -224z" />
    <glyph glyph-name="xinxiaoxue" unicode="&#xe64e;" 
d="M752 679q-38 70 -107 112t-151 42q-89 0 -162 -48.5t-107 -128.5q-76 -16 -126 -76.5t-50 -139.5q0 -92 65 -157t157 -65h8h469v1q93 2 159 69t66 161q0 93 -64.5 159.5t-156.5 70.5zM748 286h-21h-457v0v0h-1v0q-63 1 -107.5 45.5t-44.5 107.5t45 108t108 45h3
q8 36 28 67v0q20 32 49 56v1q2 1 3 2l2 2l1 1q61 46 138 46q75 0 135 -44t82 -114q17 4 35 4v0v0q16 0 33 -4v0q5 -1 11 -3h1q2 0 4 -1q1 0 2 -0.5t2 -0.5v-0.5t1 -0.5q48 -16 78.5 -58.5t30.5 -95.5q0 -67 -47 -114.5t-114 -48.5zM796 120l-1 1q-5 10 -16 13t-21 -3
l-45 -54q-7 12 -20 14l23 64q0 11 -8 19t-19 8h-2q-11 0 -19 -8t-8 -19l23 -64q-13 -2 -21 -12l-43 52q-10 6 -21 3t-16 -13l-1 -2q-6 -9 -3 -20t13 -17l67 -11q-1 -5 -1 -11v0q0 -7 3 -13l-69 -12q-10 -5 -13 -16t3 -21l1 -2q6 -10 17 -13t21 3l44 54q8 -9 21 -10l-25 -68
q0 -11 8 -19t19 -8h2q11 0 19 8t8 19l-25 68q13 1 21 11l46 -55q9 -6 20 -3t17 13l1 1q6 10 3 21t-13 17l-71 12q3 6 3 13v0v0q0 6 -1 11l69 11q10 6 13 17t-3 21zM433 161v1q-5 8 -14 10.5t-18 -2.5l-36 -46q-7 10 -18 12l20 54q0 10 -6.5 17t-16.5 7h-1q-10 0 -16.5 -7
t-6.5 -17l20 -54q-11 -1 -18 -11l-35 45q-9 5 -18 2.5t-14 -10.5v-2q-5 -8 -2.5 -17.5t10.5 -14.5l56 -9q-2 -5 -2 -9v0q0 -6 3 -12l-57 -10q-8 -4 -10.5 -13.5t2.5 -18.5l1 -1q4 -8 13.5 -10.5t17.5 1.5l37 47q7 -9 17 -9l-21 -58q0 -10 6.5 -16.5t16.5 -6.5h1
q10 0 16.5 6.5t6.5 16.5l-21 58q11 1 17 10l38 -48q8 -5 17.5 -2.5t13.5 11.5l1 1q5 8 2.5 17.5t-10.5 14.5l-59 10q3 6 3 12v0q0 4 -2 9l58 9q8 5 10.5 14.5t-2.5 18.5z" />
    <glyph glyph-name="xindaxue" unicode="&#xe64f;" 
d="M754 689q-38 70 -107 112t-151 42q-89 0 -162 -48.5t-107 -128.5q-76 -16 -126 -76.5t-50 -139.5q0 -92 65 -157t157 -65h8h293v-1l-79 -14q-11 -6 -14.5 -18.5t3.5 -23.5l1 -1q6 -11 18.5 -14.5t23.5 2.5l51 63q9 -12 23 -13l-28 -76q0 -13 9 -22t22 -9h2q13 0 22 9
t9 22l-29 76q14 1 24 11l50 -60q11 -7 23.5 -3.5t18.5 14.5l1 2q6 11 3 23t-14 19l-77 13v1h113v1q93 2 159 69t66 161q0 92 -64.5 159t-156.5 71zM750 296h-21h-457v0v0h-1v0q-63 1 -107.5 45.5t-44.5 107.5t45 108t108 45h3q8 36 28 67v0q35 57 94 86q-21 -14 -31.5 -20.5
t-12 -7.5l-1.5 -1q34 28 76 41q-33 -18 -50 -27t-19.5 -10t-1.5 -1l1 2q61 46 138 46q75 0 134.5 -44t82.5 -114q16 3 35 3v0v0q17 0 34 -3h-2q6 -1 12 -3h1v0q21 -6 39 -17q-16 7 -24 11t-9 4t0 0h2v-0.5v-0.5q49 -17 79.5 -59t30.5 -95q0 -67 -47 -114.5t-114 -48.5z
M425 139l-1 2q-7 11 -19.5 14.5t-23.5 -3.5l-49 -60q-9 13 -24 14l27 73q0 13 -9.5 22t-22.5 9h-1q-13 0 -22.5 -9t-9.5 -22l27 -73q-15 -2 -23 -15l-51 61q-11 7 -23.5 3.5t-19.5 -14.5l-1 -2q-6 -11 -3 -23.5t15 -19.5l79 -13q-2 -5 -2 -12v0v0q0 -8 4 -16l-81 -13
q-11 -6 -14.5 -18.5t2.5 -24.5l1 -1q7 -12 19.5 -15t23.5 3l52 64q9 -12 24 -14l-29 -77q0 -13 9.5 -22t22.5 -9h1q13 0 22.5 9t9.5 22l-29 77q14 1 24 12l51 -61q11 -7 23.5 -3.5t19.5 14.5l1 2q6 11 2.5 23.5t-14.5 19.5l-78 13q3 7 3 15v0q0 6 -2 12l77 13q12 6 15 19
t-3 24zM826 57l-1 1q-4 7 -12 9t-15 -2l-30 -37q-6 8 -15 9l17 45q0 8 -6 14t-14 6h-1q-8 0 -14 -6t-6 -14l17 -45q-9 -2 -15 -10l-31 39q-7 4 -15 2t-12 -10l-1 -1q-4 -7 -2 -14.5t9 -11.5l50 -9q-1 -3 -1 -7v0q0 -5 2 -10l-50 -8q-8 -4 -10 -12t2 -15l1 -1q4 -7 12 -9
t15 2l32 39q6 -7 15 -8l-18 -48q0 -8 6 -14t14 -6h1q8 0 14 6t6 14l-18 48q9 1 15 8l31 -39q7 -4 15 -2t12 9l1 1q4 7 2 15t-10 12l-48 8q2 5 2 10v0q0 4 -1 7l48 8q7 4 9 12t-2 15v0z" />
    <glyph glyph-name="humidityNew" unicode="&#xe650;" 
d="M384 896q-103 -158 -176.5 -294.5t-100 -201.5t-41.5 -116q-15 -46 -15 -94v-1q3 -131 97.5 -224t225.5 -93h6q89 0 167 42.5t124 115.5t46 159q0 35 -8 69q-28 151 -283 570zM384 -58h-5q-102 0 -175.5 71.5t-75.5 173.5q0 38 12 74q62 214 247 495q9 -15 24 -41.5
t54.5 -99.5t71.5 -135.5t61 -131.5t36 -107q6 -27 6 -54q-2 -102 -75.5 -173.5t-174.5 -71.5h-6zM969 547q-6 33 -41 101t-66 120l-32 51q-114 -169 -137 -272q-4 -15 -4 -30q0 -56 40 -96t96 -40h4h4q56 0 97 39.5t43 95.5q0 16 -4 31zM832 454h-2q-26 0 -45 18t-19 44
q0 7 1 14q7 35 25.5 82t38.5 77q18 27 40 -40q20 -60 25 -120q2 -6 2 -13q-1 -26 -20 -44t-44 -18h-2z" />
    <glyph glyph-name="windNew" unicode="&#xe654;" 
d="M825 477v1q74 11 127 71.5t53 136.5q0 82 -58.5 143.5t-140.5 65.5h-125q-17 0 -29 -12t-12 -29t12 -29.5t29 -12.5h123q47 -5 80 -42t33 -84t-33 -84.5t-80 -42.5h-762q-18 0 -30 -12t-12 -29t12 -29.5t30 -12.5zM491 52h-334q-17 0 -29 -12t-12 -29t12 -29t29 -12h334
q17 0 29 12t12 29t-12 29t-29 12zM843 263h-788q-17 0 -29 -12t-12 -29t12 -29t29 -12h763v-1q7 1 13 1q46 0 78 -32t32 -77.5t-32 -78t-78 -32.5q-6 1 -13 2v-2h-119q-19 0 -32 -13t-13 -31.5t13 -31.5t32 -13h144q75 6 127.5 63t52.5 132t-52.5 132t-127.5 63v1z" />
    <glyph glyph-name="newMoon" unicode="&#xe65b;" 
d="M917 274q-5 -2 -15 -4.5t-40 -8.5t-61 -8t-74.5 0.5t-83.5 13t-85 34.5t-83 60q-51 50 -78 112t-28.5 115t4 99t15.5 73l10 26q1 25 -5.5 39t-17.5 16.5t-22 1.5t-19 -4l-8 -4q-90 -47 -151.5 -110t-91 -130t-36 -139.5t10.5 -140.5t51.5 -131t83 -112.5t110.5 -83.5
t128 -45q91 -13 164.5 -5.5t133 35t103 61t74.5 72t46.5 67.5t20.5 48q4 19 -0.5 31.5t-13 17t-18 5.5t-17 0.5t-7.5 -1.5zM242 125q-60 63 -92.5 137t-33.5 146t21 139.5t69.5 123.5t112.5 93q-1 -7 -3.5 -19t-6.5 -49t-4 -73t7.5 -85.5t23 -92.5t48 -88t77.5 -77
q58 -43 119.5 -66t120 -26.5t105 1t97.5 16.5q-3 -4 -8 -12t-23 -30.5t-38.5 -42.5t-53.5 -43.5t-68 -38.5q-50 -23 -103 -32t-114.5 -4.5t-127 35.5t-125.5 88z" />
    <glyph glyph-name="rain" unicode="&#xe65c;" 
d="M908 281q0 -107 -53 -198.5t-144 -144.5t-199 -53t-199 53t-144 144.5t-53 198.5q0 59 21.5 123.5t56.5 121.5t77.5 112t84.5 98.5t77 77t57 51.5l22 18q8 -7 22.5 -19t55.5 -50.5t78.5 -78.5t83 -98t78.5 -113t55.5 -120t22.5 -123zM513 796q-6 -6 -18 -16.5t-46 -44.5
t-64.5 -68.5t-68.5 -84t-65 -96.5t-45.5 -102t-18.5 -103q0 -89 43.5 -164t119 -119t164 -44t164 44t119 119t43.5 164q0 65 -33.5 141.5t-81.5 140.5t-96 117.5t-82 85t-34 30.5zM729 90q-79 -90 -198 -97.5t-209 71.5q-14 12 -26 26h217.5h215.5z" />
    <glyph glyph-name="rain1" unicode="&#xe65d;" 
d="M908 281q0 -107 -53 -198.5t-144 -144.5t-199 -53t-199 53t-144 144.5t-53 198.5q0 59 21.5 123.5t56.5 121.5t77.5 112t84.5 98.5t77 77t57 51.5l22 18q8 -7 22.5 -19t55.5 -50.5t78.5 -78.5t83 -98t78.5 -113t55.5 -120t22.5 -123zM513 796q-6 -6 -18 -16.5t-46 -44.5
t-64.5 -68.5t-68.5 -84t-65 -96.5t-45.5 -102t-18.5 -103q0 -89 43.5 -164t119 -119t164 -44t164 44t119 119t43.5 164q0 65 -33.5 141.5t-81.5 140.5t-96 117.5t-82 85t-34 30.5zM800 280q0 -43 -12 -85q-28 -89 -104 -146t-172 -57q-97 0 -173.5 58t-102.5 148
q-12 40 -12 82q0 11 1 23h282h292q1 -11 1 -23z" />
    <glyph glyph-name="rain2" unicode="&#xe65e;" 
d="M908 281q0 -107 -53 -198.5t-144 -144.5t-199 -53t-199 53t-144 144.5t-53 198.5q0 59 21.5 123.5t56.5 121.5t77.5 112t84.5 98.5t77 77t57 51.5l22 18q8 -7 22.5 -19t55.5 -50.5t78.5 -78.5t83 -98t78.5 -113t55.5 -120t22.5 -123zM513 796q-6 -6 -18 -16.5t-46 -44.5
t-64.5 -68.5t-68.5 -84t-65 -96.5t-45.5 -102t-18.5 -103q0 -89 43.5 -164t119 -119t164 -44t164 44t119 119t43.5 164q0 65 -33.5 141.5t-81.5 140.5t-96 117.5t-82 85t-34 30.5zM788 195q-28 -89 -104 -146t-172 -57t-172 57t-103 146h271h280z" />
    <glyph glyph-name="rain3" unicode="&#xe65f;" 
d="M908 281q0 -107 -53 -198.5t-144 -144.5t-199 -53t-199 53t-144 144.5t-53 198.5q0 59 21.5 123.5t56.5 121.5t77.5 112t84.5 98.5t77 77t57 51.5l22 18q8 -7 22.5 -19t55.5 -50.5t78.5 -78.5t83 -98t78.5 -113t55.5 -120t22.5 -123zM513 796q-6 -6 -18 -16.5t-46 -44.5
t-64.5 -68.5t-68.5 -84t-65 -96.5t-45.5 -102t-18.5 -103q0 -89 43.5 -164t119 -119t164 -44t164 44t119 119t43.5 164q0 65 -33.5 141.5t-81.5 140.5t-96 117.5t-82 85t-34 30.5zM800 280q0 -43 -12 -85q-28 -89 -104 -146t-172 -57q-97 0 -173.5 58t-102.5 148
q-12 40 -12 82q0 58 27.5 118t72.5 110q42 0 191 0.5t184 0.5q46 -50 73.5 -110.5t27.5 -118.5z" />
    <glyph glyph-name="rainMax" unicode="&#xe660;" 
d="M908 281q0 -107 -53 -198.5t-144 -144.5t-199 -53t-199 53t-144 144.5t-53 198.5q0 59 21.5 123.5t56.5 121.5t77.5 112t84.5 98.5t77 77t57 51.5l22 18q8 -7 22.5 -19t55.5 -50.5t78.5 -78.5t83 -98t78.5 -113t55.5 -120t22.5 -123zM513 796q-6 -6 -18 -16.5t-46 -44.5
t-64.5 -68.5t-68.5 -84t-65 -96.5t-45.5 -102t-18.5 -103q0 -89 43.5 -164t119 -119t164 -44t164 44t119 119t43.5 164q0 65 -33.5 141.5t-81.5 140.5t-96 117.5t-82 85t-34 30.5zM800 280q0 -119 -84 -203.5t-203.5 -84.5t-204 84.5t-84.5 203.5q0 58 28.5 119.5t71 108.5
t94 78t94.5 31t94.5 -31t94 -77.5t71 -108.5t28.5 -120z" />
    <glyph glyph-name="rain4" unicode="&#xe661;" 
d="M908 281q0 -107 -53 -198.5t-144 -144.5t-199 -53t-199 53t-144 144.5t-53 198.5q0 59 21.5 123.5t56.5 121.5t77.5 112t84.5 98.5t77 77t57 51.5l22 18q8 -7 22.5 -19t55.5 -50.5t78.5 -78.5t83 -98t78.5 -113t55.5 -120t22.5 -123zM513 796q-6 -6 -18 -16.5t-46 -44.5
t-64.5 -68.5t-68.5 -84t-65 -96.5t-45.5 -102t-18.5 -103q0 -89 43.5 -164t119 -119t164 -44t164 44t119 119t43.5 164q0 65 -33.5 141.5t-81.5 140.5t-96 117.5t-82 85t-34 30.5zM800 280q0 -43 -12 -85q-28 -89 -104 -146t-172 -57q-97 0 -173.5 58t-102.5 148
q-12 40 -12 82q0 60 30 125h259.5h255.5q31 -64 31 -125z" />
    <glyph glyph-name="rainMin" unicode="&#xe662;" 
d="M908 281q0 -107 -53 -198.5t-144 -144.5t-199 -53t-199 53t-144 144.5t-53 198.5q0 59 21.5 123.5t56.5 121.5t77.5 112t84.5 98.5t77 77t57 51.5l22 18q8 -7 22.5 -19t55.5 -50.5t78.5 -78.5t83 -98t78.5 -113t55.5 -120t22.5 -123zM513 796q-6 -6 -18 -16.5t-46 -44.5
t-64.5 -68.5t-68.5 -84t-65 -96.5t-45.5 -102t-18.5 -103q0 -89 43.5 -164t119 -119t164 -44t164 44t119 119t43.5 164q0 65 -33.5 141.5t-81.5 140.5t-96 117.5t-82 85t-34 30.5z" />
    <glyph glyph-name="windFace" unicode="&#xe663;" 
d="M517 622l-430 235l426 -947l425 951zM512 77l-270 611l277 -149l259 146z" />
  </font>
</defs>
</svg>
