<svg xmlns="http://www.w3.org/2000/svg">
<symbol id="1" viewBox="0 0 66 66"> <!-- Generator: Sketch 46.2 (44496) - http://www.bohemiancoding.com/sketch --> <title>&#x753B;&#x677F;1</title> <desc>Created with Sketch.</desc>  <g id="sprint7-" stroke="none" stroke-width="1" fill="none" fill-rule="evenodd"> <g id="Artboard" transform="translate(-336.000000, -300.000000)"> <g id="Group-5" transform="translate(336.000000, 300.000000)"> <g id="Group-3" transform="translate(5.000000, 5.000000)"> <path d="M15.3461538,29.5961538 L28.5,29.5961538 L28.5,29.5961538 C29.7107781,29.5961538 30.6923077,30.5776834 30.6923077,31.7884615 L30.6923077,31.7884615 L30.6923077,31.7884615 C30.6923077,32.9992396 29.7107781,33.9807692 28.5,33.9807692 L15.3461538,33.9807692 L15.3461538,33.9807692 C14.1353757,33.9807692 13.1538462,32.9992396 13.1538462,31.7884615 L13.1538462,31.7884615 L13.1538462,31.7884615 C13.1538462,30.5776834 14.1353757,29.5961538 15.3461538,29.5961538 Z" id="Rectangle-6" fill="#3388FF" transform="translate(21.923077, 31.788462) rotate(45.000000) translate(-21.923077, -31.788462) "/> <path d="M24.1153846,24.1153846 L53.7115385,24.1153846 L53.7115385,24.1153846 C54.9223166,24.1153846 55.9038462,25.0969142 55.9038462,26.3076923 L55.9038462,26.3076923 L55.9038462,26.3076923 C55.9038462,27.5184704 54.9223166,28.5 53.7115385,28.5 L24.1153846,28.5 L24.1153846,28.5 C22.9046065,28.5 21.9230769,27.5184704 21.9230769,26.3076923 L21.9230769,26.3076923 L21.9230769,26.3076923 C21.9230769,25.0969142 22.9046065,24.1153846 24.1153846,24.1153846 Z" id="Rectangle-6" fill="#3388FF" transform="translate(38.913462, 26.307692) rotate(-45.000000) translate(-38.913462, -26.307692) "/> <path d="M43.2901163,6.74035043 C39.0755038,3.87010036 33.9836867,2.19230769 28.5,2.19230769 C13.9706627,2.19230769 2.19230769,13.9706627 2.19230769,28.5 C2.19230769,43.0293373 13.9706627,54.8076923 28.5,54.8076923 L28.5,54.8076923 C43.0293373,54.8076923 54.8076923,43.0293373 54.8076923,28.5" id="Oval-2" stroke="#3388FF" stroke-width="4" stroke-linecap="round" stroke-linejoin="round" transform="translate(28.500000, 28.500000) rotate(4.000000) translate(-28.500000, -28.500000) "/> </g> </g> </g> </g> </symbol>
<symbol id="2" viewBox="0 0 66 66"> <!-- Generator: Sketch 46.2 (44496) - http://www.bohemiancoding.com/sketch --> <title>&#x753B;&#x677F;2</title> <desc>Created with Sketch.</desc>  <g id="sprint7-" stroke="none" stroke-width="1" fill="none" fill-rule="evenodd"> <g id="Artboard" transform="translate(-336.000000, -525.000000)"> <g id="Group-5" transform="translate(336.000000, 525.000000)"> <g id="Group-3" transform="translate(5.000000, 5.000000)"> <g id="Group-7" transform="translate(29.909903, 28.374369) rotate(45.000000) translate(-29.909903, -28.374369) translate(16.409903, 20.374369)" fill="#333333"> <path d="M0.935402424,5.9496834 L14.9354024,5.9496834 L14.9354024,5.9496834 C16.0399719,5.9496834 16.9354024,6.8451139 16.9354024,7.9496834 L16.9354024,7.9496834 L16.9354024,7.9496834 C16.9354024,9.0542529 16.0399719,9.9496834 14.9354024,9.9496834 L0.935402424,9.9496834 L0.935402424,9.9496834 C-0.169167076,9.9496834 -1.06459758,9.0542529 -1.06459758,7.9496834 L-1.06459758,7.9496834 L-1.06459758,7.9496834 C-1.06459758,6.8451139 -0.169167076,5.9496834 0.935402424,5.9496834 Z" id="Rectangle-6" transform="translate(7.935402, 7.949683) rotate(45.000000) translate(-7.935402, -7.949683) "/> <path d="M11.7780973,5.94976074 L25.7781879,5.94976074 L25.7781879,5.94976074 C26.8827323,5.94976074 27.7781426,6.84517095 27.7781426,7.94971544 L27.7781426,7.94971544 L27.7781426,7.94971544 C27.7781426,9.05425992 26.8827323,9.94967013 25.7781879,9.94967013 L11.7780973,9.94967013 L11.7780973,9.94967013 C10.6735528,9.94967013 9.77814256,9.05425992 9.77814256,7.94971544 L9.77814256,7.94971544 L9.77814256,7.94971544 C9.77814256,6.84517095 10.6735528,5.94976074 11.7780973,5.94976074 Z" id="Rectangle-6" transform="translate(18.778143, 7.949715) rotate(-45.000000) translate(-18.778143, -7.949715) "/> </g> <path d="M43.2901163,6.74035043 C39.0755038,3.87010036 33.9836867,2.19230769 28.5,2.19230769 C13.9706627,2.19230769 2.19230769,13.9706627 2.19230769,28.5 C2.19230769,43.0293373 13.9706627,54.8076923 28.5,54.8076923 L28.5,54.8076923 C43.0293373,54.8076923 54.8076923,43.0293373 54.8076923,28.5" id="Oval-2" stroke="#333333" stroke-width="4" stroke-linecap="round" stroke-linejoin="round" transform="translate(28.500000, 28.500000) rotate(4.000000) translate(-28.500000, -28.500000) "/> </g> </g> </g> </g> </symbol>
<symbol id="3" viewBox="0 0 66 66"> <!-- Generator: Sketch 46.2 (44496) - http://www.bohemiancoding.com/sketch --> <title>&#x753B;&#x677F;3</title> <desc>Created with Sketch.</desc>  <g id="sprint7-" stroke="none" stroke-width="1" fill="none" fill-rule="evenodd"> <g id="Artboard" transform="translate(-336.000000, -748.000000)"> <g id="Group-5" transform="translate(336.000000, 748.000000)"> <g id="Group-6" transform="translate(3.000000, 6.000000)"> <g id="Group-3" stroke="#333333" stroke-width="4" stroke-linecap="round" stroke-linejoin="round"> <path d="M41.0116891,6.38559515 C37.0188984,3.66641087 32.1950716,2.07692308 27,2.07692308 C13.2353647,2.07692308 2.07692308,13.2353647 2.07692308,27 C2.07692308,40.7646353 13.2353647,51.9230769 27,51.9230769 L27,51.9230769 C40.7646353,51.9230769 51.9230769,40.7646353 51.9230769,27" id="Oval-2" transform="translate(27.000000, 27.000000) rotate(4.000000) translate(-27.000000, -27.000000) "/> </g> <path d="M36.0813595,22.5470563 C36.8381185,22.5470563 37.4530704,23.1524635 37.4530704,23.9105859 C37.4530704,24.6632542 36.839482,25.2741154 36.079996,25.2741154 L29.2718917,25.2741154 L29.2718917,30.7282338 L36.079996,30.7282338 C36.8381185,30.7282338 37.4530705,31.3336409 37.4530704,32.0917634 C37.4530704,32.8444317 36.839482,33.4552929 36.079996,33.4552929 L29.2718917,33.4552929 L29.2718917,41.6269257 C29.2718917,42.3850481 28.6664845,43 27.908362,43 C27.1556935,43 26.5448322,42.3877752 26.5448322,41.6269257 L26.5448322,33.4552929 L19.736728,33.4552929 C19.3735566,33.45747 19.0244926,33.3148181 18.7667929,33.0589098 C18.5090932,32.8030014 18.3640099,32.4549411 18.3636536,32.0917634 C18.3636536,31.339095 18.977242,30.7282338 19.736728,30.7282338 L26.5448322,30.7282338 L26.5448322,25.2741154 L19.736728,25.2741154 C19.3735566,25.2762925 19.0244926,25.1336406 18.7667929,24.8777323 C18.5090932,24.621824 18.3640099,24.2737636 18.3636536,23.9105859 C18.3636536,23.1579176 18.977242,22.5470563 19.736728,22.5470563 L24.9440482,22.5470563 L18.6922642,15.252173 C18.2367424,14.6778104 18.3168735,13.8460716 18.8736693,13.3692372 C19.4304652,12.8924029 20.2646323,12.941146 20.7621024,13.4795846 L27.908362,21.8134774 L35.053258,13.4768575 C35.3703877,13.1066295 35.8609419,12.9337112 36.3401336,13.0232395 C36.8193254,13.1127677 37.2143541,13.4511409 37.3764162,13.9108972 C37.5384784,14.3706535 37.4429529,14.881945 37.1258233,15.252173 L30.8713122,22.5470563 L36.0813595,22.5470563 Z" id="Path" stroke="#333333" fill="#333333"/> <path d="M44.5983496,25.6966991 L52.5983496,25.6966991 L52.5983496,25.6966991 C53.7029191,25.6966991 54.5983496,26.5921296 54.5983496,27.6966991 L54.5983496,27.6966991 L54.5983496,27.6966991 C54.5983496,28.8012686 53.7029191,29.6966991 52.5983496,29.6966991 L44.5983496,29.6966991 L44.5983496,29.6966991 C43.4937801,29.6966991 42.5983496,28.8012686 42.5983496,27.6966991 L42.5983496,27.6966991 L42.5983496,27.6966991 C42.5983496,26.5921296 43.4937801,25.6966991 44.5983496,25.6966991 Z" id="Rectangle-6" fill="#333333" transform="translate(48.598350, 27.696699) scale(1, -1) rotate(45.000000) translate(-48.598350, -27.696699) "/> <path d="M50.6568542,25.6568542 L58.6568542,25.6568542 L58.6568542,25.6568542 C59.7614237,25.6568542 60.6568542,26.5522847 60.6568542,27.6568542 L60.6568542,27.6568542 L60.6568542,27.6568542 C60.6568542,28.7614237 59.7614237,29.6568542 58.6568542,29.6568542 L50.6568542,29.6568542 L50.6568542,29.6568542 C49.5522847,29.6568542 48.6568542,28.7614237 48.6568542,27.6568542 L48.6568542,27.6568542 L48.6568542,27.6568542 C48.6568542,26.5522847 49.5522847,25.6568542 50.6568542,25.6568542 Z" id="Rectangle-6" fill="#333333" transform="translate(54.656854, 27.656854) scale(1, -1) rotate(-45.000000) translate(-54.656854, -27.656854) "/> </g> </g> </g> </g> </symbol>
</svg>